<svg width="14" height="17" viewBox="0 0 14 17" fill="none" xmlns="http://www.w3.org/2000/svg">
<path fill-rule="evenodd" clip-rule="evenodd" d="M4.74075 2.0918C4.74075 1.63929 5.05193 1.32813 5.50443 1.32813H7.56302C8.36858 1.32813 8.32669 2.0406 8.32669 2.49024H4.74075V2.0918ZM3.41262 1.89257V2.49024H0.756372C-0.27606 2.49024 -0.14908 3.76235 0.523955 3.81836V13.6133C0.523955 14.7704 0.570757 15.7031 1.59083 16.4644C1.95981 16.7397 2.50878 17 3.01419 17H10.0533C10.7288 17 11.3503 16.6137 11.7881 16.1783C12.2382 15.7308 12.5435 15.0219 12.5435 14.3438C12.5435 13.688 11.5769 13.38 11.2471 14.0767C11.1664 14.2472 11.2006 14.2818 11.1781 14.5057C11.1093 15.1911 10.5098 15.6719 9.75442 15.6719H3.31302C2.50086 15.6719 1.88528 15.1059 1.88528 14.4102V3.85156H11.1822V11.0234C11.1822 11.7631 12.235 11.9842 12.4962 11.2418C12.6084 10.923 12.5435 9.29147 12.5435 8.79883C12.5435 7.13867 12.5435 5.47852 12.5435 3.81836C13.2262 3.76155 13.3315 2.49024 12.3111 2.49024H9.65482C9.65482 1.72834 9.68843 1.21172 9.06575 0.589054C8.79097 0.314265 8.29497 0 7.76223 0H5.30521C4.35735 0 3.41262 0.944724 3.41262 1.89257Z" fill="#646F79"/>
<path fill-rule="evenodd" clip-rule="evenodd" d="M8.39258 7.0059V12.5508C8.39258 13.411 9.7539 13.4877 9.7539 12.4844V7.0391C9.7539 6.02645 8.39258 6.05897 8.39258 7.0059Z" fill="#646F79"/>
<path fill-rule="evenodd" clip-rule="evenodd" d="M3.3125 7.03903V12.4843C3.3125 12.6983 3.3831 12.8668 3.47768 12.9832C3.85174 13.4439 4.67383 13.1883 4.67383 12.5507V7.00583C4.67383 6.77148 4.60188 6.62692 4.48376 6.49863C4.22759 6.22039 3.7746 6.20482 3.50244 6.49851C3.38382 6.62652 3.3125 6.80613 3.3125 7.03903Z" fill="#646F79"/>
<path fill-rule="evenodd" clip-rule="evenodd" d="M5.86914 6.90624V12.6504C5.86914 12.8938 6.19021 13.2148 6.43359 13.2148H6.63282C6.8762 13.2148 7.19727 12.8938 7.19727 12.6504V6.90624C7.19727 6.57339 6.86126 6.27539 6.5332 6.27539C6.20515 6.27539 5.86914 6.57339 5.86914 6.90624Z" fill="#646F79"/>
</svg>