<svg width="20" height="17" viewBox="0 0 20 17" fill="none" xmlns="http://www.w3.org/2000/svg">
<path fill-rule="evenodd" clip-rule="evenodd" d="M1.64136 15.3213L1.86518 13.7919C2.03634 13.9065 2.35712 14.2652 2.52733 14.4354C2.66676 14.5748 3.12959 14.9804 3.17082 15.1348C2.7163 15.1348 2.0514 15.3213 1.64136 15.3213ZM12.301 2.23699C12.5665 1.84508 13.0192 1.51898 13.6159 1.51898C14.1787 1.51898 14.4717 1.87127 14.7629 2.16246C15.0705 2.46999 15.4064 2.7481 15.4064 3.34685C15.4064 4.11227 14.934 4.35531 14.735 4.65249L12.301 2.23699ZM0 16.2539C0 16.5626 0.1373 16.7324 0.35018 16.8736C0.576949 17.0241 0.794553 16.9907 1.10335 16.947C1.66746 16.8671 2.23126 16.7982 2.76587 16.707C3.14407 16.6424 4.93939 16.4524 5.19477 16.3008C5.50402 16.1171 5.55826 15.8754 5.55826 15.5452C5.55826 15.2278 4.76748 14.5465 4.44838 14.2303L3.23609 12.9805C3.03284 12.7773 2.55885 12.3508 2.42475 12.1505L4.59768 9.92162C5.34044 9.17888 6.05585 8.46346 6.79859 7.72071C6.93966 7.57965 11.0514 3.42806 11.2284 3.30956L13.644 5.7061C13.5169 5.90034 8.02757 11.3412 7.41411 11.9547C7.17232 12.1965 6.67737 12.5762 6.67737 13.0085C6.67737 13.4424 6.99631 13.7546 7.49805 13.7546C7.90091 13.7546 8.28369 13.2487 8.51456 13.0178L9.70265 11.8185C11.3276 10.1272 13.0098 8.48526 14.6697 6.82542C14.971 6.52409 15.245 6.25011 15.5463 5.94879C15.8327 5.66239 16.1586 5.37507 16.392 5.04116C16.9086 4.302 17.096 3.26387 16.7017 2.27535C16.5803 1.97091 16.413 1.70144 16.1992 1.47225C16.1103 1.37689 16.0904 1.32583 15.9947 1.22914C15.7039 0.935263 15.4168 0.641332 15.05 0.420584C14.2137 -0.0825894 13.191 -0.153488 12.26 0.312389C11.7128 0.586241 10.555 1.73148 10.1261 2.24457L9.54042 2.85258C8.45996 3.93304 0.907725 11.4282 0.729604 11.6864C0.519868 11.9904 0.47617 12.7538 0.421529 13.1316C0.36256 13.5393 0 15.9012 0 16.2539Z" fill="#646F79"/>
<path fill-rule="evenodd" clip-rule="evenodd" d="M7.83398 16.2539C7.83398 16.6402 8.18532 17 8.69198 17H18.2044C18.7884 17 19.0651 16.6699 19.0997 16.3165V16.1612C19.0648 15.8051 18.794 15.4705 18.3536 15.4705H8.58006C8.16604 15.4705 7.83398 15.8352 7.83398 16.2539Z" fill="#646F79"/>
<path fill-rule="evenodd" clip-rule="evenodd" d="M10.7063 5.58508C10.1322 5.58508 10.016 5.84639 9.61513 6.24723L5.21325 10.6863C4.47908 11.4155 5.16248 12.0437 5.63796 12.0525C6.09468 12.061 6.33486 11.6911 6.59353 11.4324C6.86999 11.156 7.1191 10.9069 7.39555 10.6304L10.6223 7.40364C10.922 7.10398 11.7021 6.48913 11.2194 5.89266C11.1249 5.77591 10.8969 5.58508 10.7063 5.58508Z" fill="#646F79"/>
</svg>